<svg width="20" height="15" viewBox="0 0 20 15" fill="none" xmlns="http://www.w3.org/2000/svg">
<path d="M1 6.6C0.502944 6.6 0.1 7.00294 0.1 7.5C0.1 7.99706 0.502944 8.4 1 8.4L1 6.6ZM19.6364 8.1364C19.9879 7.78493 19.9879 7.21508 19.6364 6.86361L13.9088 1.13604C13.5574 0.784568 12.9875 0.784568 12.636 1.13604C12.2846 1.48751 12.2846 2.05736 12.636 2.40883L17.7272 7.5L12.636 12.5912C12.2846 12.9426 12.2846 13.5125 12.636 13.864C12.9875 14.2154 13.5574 14.2154 13.9088 13.864L19.6364 8.1364ZM1 8.4L19 8.4L19 6.6L1 6.6L1 8.4Z" fill="white"/>
</svg>
