<svg width="19" height="20" viewBox="0 0 19 20" fill="none" xmlns="http://www.w3.org/2000/svg">
<path d="M17.5483 7.96571C17.4075 7.99036 17.2819 8.07206 17.199 8.19286C17.1162 8.31366 17.083 8.46368 17.1066 8.60992C17.1806 9.07242 17.2179 9.54045 17.2179 10.0093C17.2195 12.1463 16.4327 14.2027 15.0194 15.7559C14.173 14.3893 12.908 13.3587 11.4284 12.8304C12.1662 12.3201 12.7263 11.5767 13.0258 10.7103C13.3254 9.8439 13.3485 8.90037 13.0918 8.01924C12.8351 7.13811 12.3122 6.36614 11.6004 5.81749C10.8885 5.26883 10.0256 4.9726 9.13911 4.9726C8.25264 4.9726 7.3897 5.26883 6.67787 5.81749C5.96605 6.36614 5.44312 7.13811 5.18642 8.01924C4.92971 8.90037 4.95285 9.8439 5.25241 10.7103C5.55198 11.5767 6.11206 12.3201 6.84986 12.8304C5.37025 13.3587 4.1052 14.3893 3.25887 15.7559C2.17736 14.5641 1.45554 13.0695 1.18249 11.4566C0.90944 9.84377 1.09711 8.18316 1.72234 6.67976C2.34758 5.17636 3.383 3.89596 4.70085 2.99658C6.01869 2.09721 7.56127 1.61821 9.13822 1.61871C9.58939 1.61881 10.0398 1.65747 10.4848 1.73432C10.5552 1.74809 10.6275 1.74716 10.6975 1.73158C10.7675 1.716 10.8338 1.68609 10.8925 1.64359C10.9513 1.6011 11.0013 1.54686 11.0396 1.48407C11.0779 1.42127 11.1038 1.35118 11.1157 1.27787C11.1277 1.20457 11.1254 1.12953 11.1091 1.05714C11.0928 0.984753 11.0627 0.916468 11.0207 0.85628C10.9787 0.796091 10.9255 0.745205 10.8643 0.706597C10.8032 0.667989 10.7352 0.642433 10.6644 0.631423C8.75196 0.297615 6.78685 0.603568 5.05276 1.50511C3.31868 2.40666 1.90534 3.85714 1.01679 5.64717C0.128235 7.4372 -0.18956 9.47416 0.109284 11.464C0.408128 13.4538 1.30815 15.2935 2.67941 16.7175C4.05067 18.1415 5.82223 19.0762 7.73832 19.3865C9.65441 19.6969 11.6159 19.3668 13.3396 18.4441C15.0633 17.5214 16.4601 16.0536 17.3282 14.2528C18.1964 12.452 18.491 10.4113 18.1696 8.42533C18.1579 8.35275 18.1326 8.28326 18.0951 8.22086C18.0575 8.15845 18.0085 8.10435 17.9508 8.06166C17.8931 8.01896 17.8278 7.98851 17.7587 7.97205C17.6897 7.95558 17.6182 7.95343 17.5483 7.96571ZM6.08588 9.26346C6.08588 8.63653 6.26489 8.02369 6.60029 7.50242C6.93568 6.98116 7.41239 6.57488 7.97014 6.33497C8.52788 6.09506 9.1416 6.03228 9.7337 6.15459C10.3258 6.2769 10.8697 6.57879 11.2965 7.02209C11.7234 7.46539 12.0141 8.03019 12.1319 8.64506C12.2497 9.25994 12.1892 9.89727 11.9582 10.4765C11.7272 11.0557 11.336 11.5507 10.834 11.899C10.3321 12.2473 9.74191 12.4332 9.13822 12.4332C8.32869 12.4332 7.55231 12.0993 6.97989 11.5048C6.40746 10.9104 6.08588 10.1041 6.08588 9.26346ZM4.06056 16.5353C4.58735 15.6256 5.33179 14.8729 6.22153 14.3504C7.11127 13.8279 8.11605 13.5533 9.13822 13.5533C10.1604 13.5533 11.1652 13.8279 12.0549 14.3504C12.9446 14.8729 13.6891 15.6256 14.2159 16.5353C12.7798 17.7446 10.9871 18.4046 9.13822 18.4046C7.28933 18.4046 5.49663 17.7446 4.06056 16.5353ZM18.8554 2.20046L15.9826 5.18377C15.8816 5.28853 15.7447 5.34736 15.602 5.34736C15.4593 5.34736 15.3223 5.28853 15.2214 5.18377L13.785 3.69212C13.6898 3.58608 13.638 3.44583 13.6405 3.30091C13.6429 3.156 13.6995 3.01773 13.7982 2.91525C13.8968 2.81276 14.03 2.75405 14.1695 2.7515C14.3091 2.74894 14.4441 2.80273 14.5462 2.90154L15.602 3.99697L18.0941 1.40988C18.1963 1.31107 18.3313 1.25728 18.4709 1.25984C18.6104 1.2624 18.7435 1.3211 18.8422 1.42359C18.9409 1.52608 18.9975 1.66434 18.9999 1.80926C19.0024 1.95417 18.9506 2.09442 18.8554 2.20046Z" fill="#E90102"/>
</svg>
