<svg width="80" height="66" viewBox="0 0 80 66" fill="none" xmlns="http://www.w3.org/2000/svg">
<path d="M2.95501 33L1.95501 33C1.95501 33.8565 2.28747 34.6796 2.88234 35.2958C3.4772 35.9121 4.28803 36.2733 5.14401 36.3036L5.16164 36.3042L5.17929 36.3042L66.7602 36.3042L44.1431 58.9213C43.5232 59.5412 43.1749 60.382 43.1749 61.2587C43.1749 62.1354 43.5232 62.9762 44.1431 63.5962C44.763 64.2161 45.6038 64.5643 46.4805 64.5643C47.3572 64.5643 48.198 64.2161 48.8179 63.5961L77.0767 35.3374C77.6966 34.7175 78.0449 33.8767 78.0449 33L77.0449 33L78.0449 33C78.0449 32.1233 77.6966 31.2825 77.0767 30.6626L48.8179 2.40385C48.198 1.78393 47.3572 1.43566 46.4805 1.43566C45.6038 1.43566 44.763 1.78393 44.1431 2.40385C43.5232 3.02377 43.1749 3.86457 43.1749 4.74127C43.1749 5.61797 43.5232 6.45876 44.1431 7.07869L66.7602 29.6958L5.17929 29.6958L5.16164 29.6958L5.14401 29.6964C4.28803 29.7267 3.4772 30.0879 2.88234 30.7042C2.28747 31.3204 1.95501 32.1435 1.95501 33L2.95501 33Z" fill="#EA0000" stroke="#EA0000" stroke-width="2"/>
</svg>
