<svg width="21" height="26" viewBox="0 0 31 26" fill="none" xmlns="http://www.w3.org/2000/svg">
<path d="M11.9932 0.74857L29.951 5.56035C30.2258 5.63398 30.46 5.81374 30.6023 6.06009C30.7445 6.30645 30.7831 6.59921 30.7094 6.87398L25.8976 24.8318C25.824 25.1066 25.6443 25.3408 25.3979 25.4831C25.1516 25.6253 24.8588 25.6639 24.584 25.5902C24.3092 25.5166 24.075 25.3368 23.9327 25.0905C23.7905 24.8441 23.752 24.5514 23.8256 24.2766L27.9674 8.81906L2.18522 23.7044C1.93979 23.8348 1.65334 23.8648 1.3862 23.7882C1.11907 23.7115 0.892118 23.5342 0.753162 23.2935C0.614205 23.0528 0.574093 22.7676 0.641275 22.4979C0.708458 22.2282 0.877689 21.9952 1.11332 21.8478L26.8955 6.96246L11.438 2.82063C11.1632 2.747 10.9289 2.56724 10.7867 2.32089C10.6445 2.07453 10.6059 1.78177 10.6796 1.50699C10.7532 1.23222 10.9329 0.997951 11.1793 0.85572C11.4256 0.713488 11.7184 0.674945 11.9932 0.74857Z" fill="black"/>
</svg>
